<?xml version="1.0" standalone="no"?>
<!DOCTYPE svg PUBLIC "-//W3C//DTD SVG 20010904//EN"
 "http://www.w3.org/TR/2001/REC-SVG-20010904/DTD/svg10.dtd">
<svg version="1.0" xmlns="http://www.w3.org/2000/svg"
 width="16.000000pt" height="16.000000pt" viewBox="0 0 16.000000 16.000000"
 preserveAspectRatio="xMidYMid meet">
<metadata>
Created by potrace 1.11, written by Peter Selinger 2001-2013
</metadata>
<g transform="translate(0.000000,16.000000) scale(0.005333,-0.005333)"
fill="#000000" stroke="none">
<path d="M590 2765 c-173 -55 -210 -296 -84 -548 148 -296 448 -530 688 -538
60 -2 47 13 114 -139 13 -30 28 -64 32 -75 5 -11 23 -55 40 -98 l30 -78 -43
-72 c-24 -40 -63 -108 -87 -152 -23 -44 -50 -93 -60 -110 -15 -25 -98 -182
-148 -278 l-14 -29 -38 99 c-37 100 -135 307 -185 394 l-27 47 36 38 c104 110
78 320 -66 535 -88 131 -209 238 -341 299 -134 63 -273 56 -339 -17 -51 -57
-75 -184 -49 -271 5 -18 9 -33 9 -35 -3 -6 27 -86 44 -122 123 -250 393 -456
590 -450 34 1 37 -2 57 -44 67 -151 110 -266 135 -366 35 -139 48 -302 31
-395 -9 -51 -22 -102 -30 -122 -7 -17 6 -18 188 -18 l194 0 6 78 c3 42 17 122
32 177 46 176 181 565 195 565 8 0 56 -126 114 -300 81 -242 116 -385 116
-472 l0 -48 195 0 c107 0 195 2 195 4 0 2 -6 21 -14 43 -13 36 -29 147 -30
198 0 28 13 164 20 200 18 107 63 243 138 416 l37 85 37 -1 c221 -7 519 243
619 519 22 61 24 74 30 158 18 258 -199 342 -465 180 -144 -86 -255 -210 -331
-367 -51 -106 -66 -164 -66 -255 1 -83 19 -132 66 -180 l28 -28 -84 -168 c-47
-93 -103 -216 -124 -272 l-39 -104 -14 29 c-61 122 -275 513 -314 574 l-24 39
30 77 c17 43 37 92 44 108 8 17 30 69 51 116 l36 87 52 1 c58 0 169 31 237 66
183 94 372 294 463 488 146 313 43 567 -219 543 -158 -15 -317 -101 -471 -256
-177 -178 -287 -409 -278 -587 5 -97 34 -161 97 -210 l28 -21 -59 -90 c-33
-50 -67 -105 -76 -121 -8 -17 -19 -31 -23 -31 -4 0 -19 19 -34 43 -14 23 -49
78 -77 121 l-51 79 23 16 c128 89 137 294 23 526 -170 345 -554 595 -796 520z"/>
</g>
</svg>
